<svg xmlns="http://www.w3.org/2000/svg" version="1.1" xmlns:xlink="http://www.w3.org/1999/xlink" xmlns:svgjs="http://svgjs.com/svgjs" width="512" height="512" x="0" y="0" viewBox="0 0 496 496" style="enable-background:new 0 0 512 512" xml:space="preserve" class=""><g><path d="M496 369.6c0 27.2-21.6 46.4-48 46.4H48c-26.4 0-48-19.2-48-46.4V126.4C0 99.2 21.6 80 48 80h400c26.4 0 48 19.2 48 46.4v243.2z" style="" fill="#29337a" data-original="#29337a" class=""></path><path d="M48 80h400c26.4 0 48 19.2 48 46.4v243.2c0 27.2-25.6 46.4-52 46.4" style="" fill="#1b265b" data-original="#1b265b"></path><path d="M48 80h400c26.4 0 48 19.2 48 46.4V216M496 368.8c0 27.2-21.6 47.2-48 47.2H48c-26.4 0-48-20.8-48-48" style="" fill="#111d49" data-original="#111d49" class=""></path><path d="M272 248 442.4 80h-48L248 226.4 101.6 80h-48L224 248 53.6 416h48L248 269.6 394.4 416h48z" style="" fill="#ffffff" data-original="#ffffff" class=""></path><path d="m102.4 368-48.8 48h48l48-48zM346.4 368l48 48h48l-48.8-48z" style="" fill="#d9eced" data-original="#d9eced"></path><path d="M411.2 386.4 272 249.6 442.4 80h-48L248 226.4 101.6 80h-48l32 30.4z" style="" fill="#d9eced" data-original="#d9eced"></path><path d="M496 216H280V80h-64v136H0v64h216v136h64V280h216z" style="" fill="#ffffff" data-original="#ffffff" class=""></path><path d="M216 368h64v48h-64zM280 80h-64v136h-5.6l75.2 64H496v-64H280z" style="" fill="#d9eced" data-original="#d9eced"></path><path d="M496 232H264h9.6L432.8 80h-16L264 232V80h-32v152L77.6 80H63.2L216 232H0v32h216.8L67.2 416h14.4L232 264v152h32V265.6L418.4 416h14.4L280 264h216z" style="" fill="#e51d35" data-original="#e51d35" class=""></path><path d="M232 368h32v48h-32zM114.4 368l-47.2 48h14.4l48-48zM369.6 368l48.8 48h14.4L384 368zM278.4 232 432.8 80h-16L264 232V80h-32v152L77.6 80H63.2l88 87.2 192 161.6L280 264h216v-32H264z" style="" fill="#af0026" data-original="#af0026" class=""></path></g></svg>
