<svg xmlns="http://www.w3.org/2000/svg" version="1.1" xmlns:xlink="http://www.w3.org/1999/xlink" xmlns:svgjs="http://svgjs.com/svgjs" width="512" height="512" x="0" y="0" viewBox="0 0 512 512" style="enable-background:new 0 0 512 512" xml:space="preserve"><g><path d="M8.258 385.743c0 19.561 15.858 35.418 35.418 35.418h424.648c19.561 0 35.418-15.858 35.418-35.418V256H8.258v129.743z" style="" fill="#ed1f34" data-original="#ed1f34"></path><path d="M468.324 90.839H43.676c-19.561 0-35.418 15.857-35.418 35.417V256h495.484V126.256c0-19.561-15.858-35.417-35.418-35.417z" style="" fill="#ffffff" data-original="#ffffff"></path><path d="M468.324 82.581H43.676C19.593 82.581 0 102.173 0 126.256v259.487c0 24.084 19.593 43.676 43.676 43.676h424.648c24.083 0 43.675-19.593 43.675-43.676V126.256c.001-24.083-19.592-43.675-43.675-43.675zm0 330.322H43.676c-14.977 0-27.16-12.183-27.16-27.16V264.258h57.806A8.258 8.258 0 0 0 82.58 256a8.258 8.258 0 0 0-8.258-8.258H16.516V126.256c0-14.976 12.183-27.159 27.16-27.159h424.648c14.976 0 27.159 12.183 27.159 27.159v121.486H107.355A8.258 8.258 0 0 0 99.097 256a8.258 8.258 0 0 0 8.258 8.258h388.129v121.485c0 14.977-12.184 27.16-27.16 27.16z" style="" fill="#121b21" data-original="#121b21"></path><path d="M468.324 429.419H43.676C19.593 429.419 0 409.827 0 385.743V126.256c0-24.083 19.593-43.675 43.676-43.675h424.648c24.083 0 43.675 19.593 43.675 43.675v259.487c.001 24.084-19.592 43.676-43.675 43.676zM43.676 99.097c-14.977 0-27.16 12.183-27.16 27.159v259.487c0 14.977 12.183 27.16 27.16 27.16h424.648c14.976 0 27.159-12.183 27.159-27.16V126.256c0-14.976-12.183-27.159-27.16-27.159H43.676z" style="" fill="#121b21" data-original="#121b21"></path></g></svg>
