<svg xmlns="http://www.w3.org/2000/svg" version="1.1" xmlns:xlink="http://www.w3.org/1999/xlink" xmlns:svgjs="http://svgjs.com/svgjs" width="512" height="512" x="0" y="0" viewBox="0 0 1707 1707" style="enable-background:new 0 0 512 512" xml:space="preserve" class=""><g><path d="M853 915c-6 0-12-3-16-8L726 754H402c-39 0-70-31-70-70V70c0-38 31-70 70-70h903c38 0 70 32 70 70v614c0 39-32 70-70 70H981L869 907c-3 5-9 8-16 8zM402 40c-17 0-30 14-30 30v614c0 17 13 30 30 30h334c6 0 12 3 16 8l101 139 102-139c3-5 9-8 16-8h334c16 0 30-13 30-30V70c0-16-14-30-30-30z" fill="#000000" data-original="#000000" class=""></path><path d="M853 1706c-31 0-107-135-210-136H129c-11 0-20-9-20-20V547c0-11 9-20 20-20h223c26 0 26 40 0 40H149v963h495c89 1 149 72 209 129 60-57 120-128 209-129h495V567h-202c-26 0-26-40 0-40h222c11 0 20 9 20 20v1003c0 11-9 20-20 20h-514c-102 2-178 136-210 136z" fill="#000000" data-original="#000000" class=""></path><path d="M853 1530c-5 0-10-1-13-5-86-82-194-83-195-83H257c-11 0-20-9-20-20V675c0-11 9-20 20-20h95c26 0 26 40 0 40h-75v707h368c5 0 114 1 208 82 95-81 203-82 209-82h368V695h-75c-26 0-26-40 0-40h95c11 0 20 9 20 20v747c0 11-9 20-20 20h-388c-1 0-109 1-195 83-4 4-9 5-14 5z" fill="#000000" data-original="#000000" class=""></path><path d="M853 1530c-11 0-20-9-20-20V895c0-26 40-26 40 0v615c0 11-9 20-20 20zM971 1318c-22 0-29-29-9-38 7-3 158-69 372-21 26 6 17 45-9 39-210-46-342 20-354 20zM971 1173c-22 0-29-30-9-39 7-3 158-68 372-21 26 6 17 45-9 39-210-46-342 21-354 21zM971 1027c-22 0-28-30-9-38 7-3 158-69 372-22 26 6 17 45-9 39-200-44-345 18-346 19-3 1-6 2-8 2zM971 881c-22 0-28-30-9-38 7-3 159-69 372-22 26 6 17 45-9 39-209-46-342 21-354 21zM736 1318c-13 0-146-66-355-20-25 6-34-33-8-39 213-47 365 18 371 21 20 9 13 38-8 38zM736 1173c-13 0-146-67-355-21-25 6-34-33-8-39 213-47 365 19 371 22 20 8 13 38-8 38zM736 1027c-13 0-146-66-355-21-25 6-34-33-8-39 213-47 365 19 371 22 20 9 13 38-8 38zM736 881c-13 0-146-66-355-20-25 5-34-34-8-39 213-48 365 18 371 21 20 9 13 38-8 38zM517 609c-11 0-20-9-20-20V175c0-27 40-27 40 0v414c0 11-9 20-20 20z" fill="#000000" data-original="#000000" class=""></path><path d="M791 195H517c-26 0-26-40 0-40h274c26 0 26 40 0 40zM791 402H517c-26 0-26-40 0-40h274c26 0 26 40 0 40zM791 609H517c-26 0-26-40 0-40h274c26 0 26 40 0 40zM932 619c-11 0-20-9-20-20V169c0-20 26-27 37-10l220 365V155c0-26 40-26 40 0v441c0 20-26 27-37 10L952 241v358c0 11-9 20-20 20z" fill="#000000" data-original="#000000" class=""></path><path fill="#e9f1ff" d="M833 902 726 754H402c-35 0-65-26-70-59h-55v707h368c5 0 99 1 188 66zm-97 125c-13 0-146-66-355-21-25 6-34-33-8-39 213-47 365 19 371 22 20 9 13 38-8 38zM381 861c-25 5-34-34-8-39 213-48 365 18 371 21 20 9 13 38-8 38-13 0-146-66-355-20zm-8 252c213-47 365 19 371 22 20 8 13 38-8 38-13 0-146-67-355-21-25 6-34-33-8-39zm0 146c213-47 365 18 371 21 20 9 13 38-8 38-13 0-146-66-355-20-25 6-34-33-8-39zM873 901v567c90-65 184-66 189-66h368V695h-56c-5 33-34 59-69 59H981zm452 105c-200-44-345 18-346 19-3 1-6 2-8 2-22 0-28-30-9-38 7-3 158-69 372-22 26 6 17 45-9 39zm0-146c-209-46-342 21-354 21-22 0-28-30-9-38 7-3 159-69 372-22 26 6 17 45-9 39zm-354 313c-22 0-29-30-9-39 7-3 158-68 372-21 26 6 17 45-9 39-210-46-342 21-354 21zm0 145c-22 0-29-29-9-38 7-3 158-69 372-21 26 6 17 45-9 39-210-46-342 20-354 20z" data-original="#e9f1ff" class=""></path><path fill="#fc749c" d="m853 861 102-139c3-5 9-8 16-8h334c16 0 30-13 30-30V70c0-16-14-30-30-30H402c-17 0-30 14-30 30v614c0 17 13 30 30 30h334c6 0 12 3 16 8zm79-242c-11 0-20-9-20-20V169c0-20 26-27 37-10l220 365V155c0-26 40-26 40 0v441c0 20-26 27-37 10L952 241v358c0 11-9 20-20 20zm-141-10H517c-7 0-14-5-17-11-2-3-3-6-3-9V175c0-6 2-10 5-13 3-4 8-7 15-7h274c26 0 26 40 0 40H537v167h254c26 0 26 40 0 40H537v167h254c26 0 26 40 0 40z" data-original="#fc749c"></path><path fill="#fc5185" d="M237 1422V675c0-11 9-20 20-20h75v-88H149v963h495c89 1 149 72 209 129 60-57 120-128 209-129h495V567h-182v88h75c11 0 20 9 20 20v747c0 11-9 20-20 20h-388c-1 0-109 1-195 83-4 4-9 5-14 5-2 0-4 0-7-1s-5-3-7-5c-86-81-193-82-194-82H257c-11 0-20-9-20-20z" data-original="#fc5185"></path></g></svg>
